<svg id="Warstwa_1" data-name="Warstwa 1" xmlns="http://www.w3.org/2000/svg" viewBox="0 0 189.58 37.11"><defs><style>.cls-1{fill:#ffffff;}</style></defs><path class="cls-1" d="M11.64.33h5.7V20.21c0,5-3.07,8.29-8.94,8.29C3.16,28.5,0,25.62,0,20.05V17.26H5.17v2.5c0,2.75.90,4.1,3.23,4.1,2.63,0,3.24-1.19,3.24-4.18Z"/><path class="cls-1" d="M32.64,27.55V24.72a6.81,6.81,0,0,1-6.28,3.37c-4,0-6.84-3-6.84-7.43V7.38h5.33V19.84c0,2.55,1.14,3.78,3.4,3.78,2.7,0,4.14-1.93,4.14-4.6V7.38h5.29V27.55Z"/><path class="cls-1" d="M54,27.55l0-2.46a6.15,6.15,0,0,1-5.62,3c-5.09,0-8.73-4-8.73-10.83,0-6.11,3.07-10.41,8.28-10.41a6.93,6.93,0,0,1,6,3.15V0h5.25V27.55ZM54.08,18c0-4.39-1.52-6.56-4.47-6.56-3.12,0-4.59,2.09-4.59,6.23,0,3.61,1.88,6.11,4.55,6.11S54.08,21.36,54.08,18Z"/><path class="cls-1" d="M75.52,24.85c-.74,1.8-2.91,2.87-5.53,2.87-6.65,0-8.94-5.09-8.94-10.38,0-6.27,3.93-10.49,8.81-10.49a6.15,6.15,0,0,1,5.66,3V7.38h5.33V27.76c0,6.07-4.43,9.35-10,9.35s-9.76-3.24-9.76-8.45h5c0,2.42,1.76,3.85,4.43,3.85,2.83,0,5.08-1.68,5.08-4.34ZM75.69,18c0-4.39-1.52-6.48-4.56-6.48s-4.55,2-4.55,6.15c0,3.61,1.93,5.9,4.55,5.9S75.69,21.36,75.69,18Z"/><path class="cls-1" d="M88.07,18.86c.16,3,1.88,5,4.51,5a3.53,3.53,0,0,0,3.61-2.25h5.49a8.75,8.75,0,0,1-8.86,6.48c-6.72,0-10.08-3.69-10.08-11,0-6.23,3.56-10.25,9.76-10.25s9.47,4,9.47,12Zm8.4-3.36c-.08-3-2-4.43-4.14-4.43s-3.89,1.64-4.1,4.43Z"/><path class="cls-1" d="M124.76,27.55V8.9l-5.08,18.65H114L109,9V27.55h-5.29V.33h8.36l4.92,20,4.92-20h8.2V27.55Z"/><path class="cls-1" d="M144.93,27.55a8,8,0,0,1-.32-1.8,8.17,8.17,0,0,1-6.11,2.34c-4.6,0-6.73-2.26-6.73-5.54,0-5.82,3.9-6.48,9.27-7.22,2.66-.36,3.4-.9,3.4-2.29S143.13,11,141,11c-2.42,0-3.4,1.19-3.65,3h-5c.08-4.18,2.38-7.09,8.85-7.09s8.62,2.87,8.62,8V27.55Zm-.37-9.88c-.53.53-1.47.82-3.44,1.19-3,.57-4.0,1.44-4.0,3.16,0,1.51.90,2.25,2.59,2.25a4.63,4.63,0,0,0,4.83-4.38Z"/><path class="cls-1" d="M163.67,14.27h5V20c0,4.26-2.46,8.08-8.16,8.08-5.9,0-8.24-3.78-8.24-8.12v-18h5.25V7.38h11.15v3.77H157.48v8.28c0,2.55.90,4,3.07,4s3.12-1.43,3.12-3.93Z"/><path class="cls-1" d="M175.68,18.86c.17,3,1.89,5,4.51,5a3.52,3.52,0,0,0,3.61-2.25h5.49a8.75,8.75,0,0,1-8.85,6.48c-6.73,0-10.09-3.69-10.09-11,0-6.23,3.57-10.25,9.76-10.25s9.47,4,9.47,12Zm8.41-3.36c-.08-3-2.05-4.43-4.14-4.43s-3.9,1.64-4.1,4.43Z"/></svg>
