                    <svg
                      width="24"
                      height="24"
                      xmlns="http://www.w3.org/2000/svg"
                      viewBox="0 0 24 24"
                    >
                      <path
                        d="M3 6h18v2H3zm2 2v14c0 1.1.9 2 2 2h10a2 2 0 002-2V8H5zm2 0h10v14H7V8zM10 2h4v2h-4V2zm9 1v2H5V3c0-1.1.9-2 2-2h10a2 2 0 012 2z"
                        fill="white"
                      />
                      <line
                        x1="8"
                        y1="10"
                        x2="8"
                        y2="20"
                        stroke="white"
                        strokeWidth="1.5"
                      />
                      <line
                        x1="16"
                        y1="10"
                        x2="16"
                        y2="20"
                        stroke="white"
                        strokeWidth="1.5"
                      />
                    </svg>