<svg id="Warstwa_1" data-name="Warstwa 1" xmlns="http://www.w3.org/2000/svg" viewBox="0 0 775.41 275.74"><defs><style>.cls-1{fill:#312783;}.cls-2{fill:#fff;}</style></defs><path class="cls-1" d="M343.49,47.88c-2.13.56-3.9,4.36-7.37,11.93-.55,1.21-1.13,2.41-1.71,3.61-2.09,4.27-3.61,7.37-4.13,8.4C324,84.3,321.51,91.21,315,100.17c-7.14,9.87-10.69,10.58-12.49,10.64-3.86.12-7.82-2.5-8.94-3.32-5.11-3.77-5.56-6.62-7.24-6.39-2.87.39-5,9.17-3.79,16.81A25.4,25.4,0,0,0,289.73,132c1.54,1.52,6.5,6.27,14,6.93,7.39.65,13-3,16.63-5.5,5.76-3.9,10.85-9.38,19.32-25.87,6-11.73,9.55-23,13.66-31.61,1.46-3-2.81,6.35,3.09-7a27.06,27.06,0,0,0,2.19-6c.44-2.14.85-4.16,0-6.21-.37-.95-1.16-2.29-5.26-4.76C348.26,48.88,345.67,47.31,343.49,47.88Z"/><path class="cls-1" d="M358.45,82.22a129.88,129.88,0,0,0-9.11,13.83c-4.73,8.3-7.17,12.7-7.5,19-.16,3.14-.43,8.51,3.23,13.15.55.7,4.62,6.35,9.21,5.68,2.47-.36,4.46-2.46,6.51-4.62,2.72-2.87,2.91-4.45,4.41-4.62,2-.23,3.09,2.45,6.17,5,.6.51,5.79,4.73,9.79,4.33,3.65-.36,5.8-4.52,11.75-18.63,8.7-20.65,9.08-23.6,7.57-26.71-2.89-6-11.19-9.4-14.64-7.21-2.78,1.76-.52,6-3.65,15.54-2.81,8.57-6.52,10.89-7.48,11.44s-4.22,2.43-7.58,1.33a4.87,4.87,0,0,1-2.55-1.53c-2.91-3.79,2.81-12.6,3.57-13.79,2.74-4.23,4.58-5,4.32-6.65C372.19,86,369.46,83.73,358.45,82.22Z"/><path class="cls-1" d="M407.73,88.6c-4.17,3.72-5.73,8-7.24,12.08s-3.37,9.18-2.46,15.75a21.5,21.5,0,0,0,5.37,12.24c1.63,1.73,4.83,5.1,7.9,4.41,4.56-1,5.1-10.36,7.93-10.27,1.25,0,1.74,1.88,3.24,4.19,3.32,5.11,9.87,9.88,13.19,8.71s2.06-8,4.5-19.8c1.77-8.55,4.42-14.55,7.76-22.09,7.32-16.54,13.14-20.93,10.92-28.18-.22-.72-2.19-6.82-7.44-8.29a9.36,9.36,0,0,0-7.22,1.07c-2.08,1.41-2.54,3.25-4.53,10-3.68,12.48-.52.79-4.85,15.32-1.49,5-2.08,7.85-3.32,7.91s-1.42-2.73-4.09-5.11c-3.66-3.26-8.78-2.88-9.7-2.81C412.75,84.12,409.55,87,407.73,88.6Z"/><path class="cls-1" d="M467.37,84.13A43.78,43.78,0,0,0,454,97.44a34.69,34.69,0,0,0-4.66,17c.06,4.15.13,9.88,4.1,12.51a8.93,8.93,0,0,0,5.73,1.27c6.17-.7,9.15-7.68,10-7.2s-2.36,10.22-10.32,17.56c-3,2.78-6.3,4.87-7.41,4-.86-.65.3-2.48-.78-3.9-1.45-1.92-5.56-1.21-7.64-.51-1.28.43-4.61,1.55-5.89,4.85a7.85,7.85,0,0,0-.06,5.2c.27.85,1.15,2.94,6.18,6.17a32.74,32.74,0,0,0,9.35,4.48c1.66.47,9.25,2.61,15.73.36,8.91-3.09,12.62-13.2,15.11-19.87,3.56-9.52,1.69-13,6.68-23.65,1.13-2.4,2.37-4.64,4.84-9.13,6.41-11.61,9.32-14.85,7.68-17.86-1.49-2.72-6-4.32-7.48-4.84-2.51-.89-4.19-1.48-5.83-.8-3.81,1.57-3.64,8.38-5.22,8.37-1.34,0-1-4.88-4.68-7.67A9.64,9.64,0,0,0,473.34,82,11.06,11.06,0,0,0,467.37,84.13Z"/><path class="cls-1" d="M503,126.39c1.13,1.5,6.91,9.2,13.24,8,3.2-.62,5.39-3.18,7.7-6.44,2.05-2.9,4-5.16,3.57-8.17-.49-3.61-3.86-5.92-4.29-6.21-2.21-1.47-4.16-1.45-4.13-2,0-.75,4.14-.53,9.48-2.19,3.06-1,5.73-1.81,8-4.19,1.88-1.94,2.62-4,3.54-6.49,1.4-3.85,2.4-6.6,1.41-9.6-1.45-4.38-6.35-6.27-7.4-6.64C524.53,79.1,513.91,88,510.4,91c-4.61,3.87-10.81,9.09-12,18A24.41,24.41,0,0,0,503,126.39Z"/><path class="cls-1" d="M553.37,136.8c-4.52.61-11-7.93-11.46-8.59a22.07,22.07,0,0,1-3.34-5.9c-2.28-6.69,1.27-13.22,6.7-23.48,6.59-12.44,10.09-20,13.17-25,1.29-2.14.87-1.37,2.77-4.49,10.35-17,12.72-23.21,17.59-23.58a9.54,9.54,0,0,1,4.93,1A63.39,63.39,0,0,1,591.37,51c5.53,3.39,6.23,3.59,6.88,4.88.45.9.82,2.24-.27,7.16-1.14,5.16-2.52,8-4.73,14.39-1.76,5.08-2.63,7.63-2.15,7.88.87.46,5.54-6.74,8.67-11.55,2.21-3.4,9-14.1,10.44-16.29,0,0,2-3.17,8.68-9.45a6,6,0,0,1,3.83-2c1.42-.06,2.09.67,5.76,3,3,1.88,2.87,1.62,5.37,3.28,4.18,2.77,4.61,3.13,4.85,3.68,1.15,2.62-1.35,6-2.12,7.15-7.35,10.44-18.24,37.05-18.45,52.6,0,3.64-.5,7.26-.62,10.89-.23,7.1,0,10.23-2.19,12.12-1.82,1.56-4.29,1.41-6.38,1.24-5.24-.43-12.34-3.48-15.32-10-2.11-4.58-1.2-8.79.26-15.57,2-9.18,6.8-14.92,5.62-15.83-.64-.49-2.53.77-3.81,1.91-4.76,4.24-4.62,10-9.06,21a6.7,6.7,0,0,1-2,3c-2.94,2.32-8.12,1.55-11.5-.84a10.64,10.64,0,0,1-3.56-4.14c-.92-1.94-1.52-4.83,1.4-14.94,2.35-8.14,4.44-12.15,2.53-14.17a3.38,3.38,0,0,0-2.55-1C562.62,90.07,563.29,135.45,553.37,136.8Z"/><path class="cls-1" d="M652.22,82.73c-4.34,1.32-7.26,3.5-10.72,6.07a49,49,0,0,0-7,6.27,38.34,38.34,0,0,0-6.73,9.85,30.26,30.26,0,0,0-2.89,9.72c-.32,2.82-.7,6.25.8,10.12.36.94,3.14,8,8.67,8.68a9,9,0,0,0,6.06-1.85c4.75-3.45,5-8.6,7.5-8.59.63,0,1.29.54,2.61,1.6,2.17,1.75,2.26,2.77,4.06,4.51a17,17,0,0,0,5.09,3.25c2.32,1.09,3.48,1.64,5,1.47a7.18,7.18,0,0,0,4.47-2.59c2-2.54,1.21-5.37.51-13.53a80.15,80.15,0,0,1-.51-12c.3-5.68.45-8.51,1.79-11.74.76-1.83,1.41-2.74,1.28-4.34-.32-3.73-4.66-6.09-5.43-6.51C661.13,80,654.78,82,652.22,82.73Z"/><path class="cls-1" d="M704,55.32c-1.52.49-1.77,1.36-7,9.84-2.67,4.31-2.58,4-3.89,6.34-3.51,6.12-2.95,6.37-4.23,7.4-3.51,2.81-6.72.5-10.89,3.54a8.44,8.44,0,0,0-2.87,3.93c-1,2.6-1.09,6.53.83,7.83,2.25,1.52,6.11-1.35,6.81-.32.41.61-.63,2-2.22,4.18,0,0-1,1.72-3.39,6.62-1.66,3.37-3.69,7.44-3.32,12.49.42,5.7,3.74,9.6,5.46,11.6s5.36,6.24,10.58,6.46H690c7.71.21,18.54-12.92,15.58-19.32-1-2.26-4-4.2-6.48-3.83-2.1.32-3,2.27-3.77,1.87-1.21-.64.42-6.09,1.13-8.46.54-1.82,1.08-3.29,1.5-4.32a46.1,46.1,0,0,1,2.1-4.84c1.11-2,2.15-3.81,4.08-5,1-.6,1.59-.39,5.31-1.1,6.37-1.21,7.72-.83,9.15-2,1.06-.87,2.48-2.62,2.1-4.16-.65-2.67-6.4-3.6-6.81-3.66l-.23,0a43.26,43.26,0,0,0-4.85-.26A49,49,0,0,1,715,66.76c.66-1,1.85-2.62,1.55-4.56-.35-2.32-2.82-3.72-4.68-4.77C709.34,56,706.62,54.47,704,55.32Z"/><path class="cls-1" d="M735.26,82c-7.51.12-12.74,5.73-18.32,11.7-3.26,3.49-5.63,6.08-7.17,10.43a24.1,24.1,0,0,0-.53,14c1.75,6.59,7.13,15.34,14.16,15.6a10.24,10.24,0,0,0,4.56-1c4.77-2.12,7.08-6.46,8.88-9.84,1.39-2.62,2-4,1.8-5.13-1-5.13-12.58-6.31-12.38-7.65s10.47,1.62,17.9-3.72c.87-.62,5.33-3.83,6-9.49.71-6.1-3.56-10.4-4.13-11A15.07,15.07,0,0,0,735.26,82Z"/><path class="cls-2" d="M469.28,98.94a7.88,7.88,0,0,0-6,8.17c.25,2.34,1.78,5.25,4,5.64,4.42.78,10.76-8.46,8.62-12.15C474.8,98.66,471.44,98.42,469.28,98.94Z"/><path class="cls-2" d="M514.34,103.92c-1.63-2.56,4.13-11.09,11.11-12.13,2.11-.31,5.74-.15,6.64,1.79s-1.54,4.88-2.17,5.62C525.29,104.57,515.92,106.4,514.34,103.92Z"/><path class="cls-2" d="M415.28,96c-5.4,1.76-7.11,7.11-7.4,8-1.74,5.47.32,11.79,2.3,12s3-6.64,6.89-7.15c3.12-.41,4.7,3.67,7,3.06,3-.79,5.79-9,1.91-13.66C423.3,95.08,418.47,95,415.28,96Z"/><path class="cls-2" d="M646.09,96.77a12.88,12.88,0,0,0-6.21,7.15c-.71,2.29-1.32,6.91,1.11,8.68,2.81,2.05,8-1,10.38-3,5-4.12,7.89-11.82,5.45-14.38C654.7,93,649,95.11,646.09,96.77Z"/><path class="cls-2" d="M729.17,102.3a10.91,10.91,0,0,0,7.6-4.91c.18-.3,2.11-3.69,1-5.21s-4.6-.17-6.14.43c-2.24.87-7.68,3.54-7.29,6.3C724.67,101,728.07,102,729.17,102.3Z"/></svg>