<?xml version="1.0" encoding="UTF-8"?>
<svg id="Warstwa_1" data-name="Warstwa 1" xmlns="http://www.w3.org/2000/svg" viewBox="0 0 1848 466.14">
  <defs>
    <style>
      .cls-1 {
        fill: #ee7d00;
      }
    </style>
  </defs>
  <path class="cls-1" d="m233.52,242.89h-23.4l-2.33,5.26,5.63,64.38h33.63l-13.54-69.64Zm208.55,116.8l-27.16,49.53v-20.08h-4.16l-14.64,20.08v-20.08h-4.16l-14.64,20.08v-20.08h-4.15l-14.64,20.08v-20.08h-4.15l-14.64,20.08v-41.79l6.06-7.18v-64.16l10.56-7.18h73.02l12.72,70.78Zm-23.34-276.97l-18.35,199.19h-26.97l-7.02-154.24-117.68,58.96c-1.32,13.01-11.56,23.26-24.56,24.59l-9.4,21.23h27.48l17.41,80.08h11.32v35.17h-11.32l-3.23,7.16h-83.57l-5.48-6.64H39.4l8.7-63.89h67.9v-15.32h15.67l6.13-36.56h19.35l38.52-58.8c3.51-8.83,11.42-15.36,21.04-16.99,0,0,169.74-99.73,174.37-99.73,14.64,0,26.49,11.41,27.47,25.8h.19ZM42.62,359.8v-.11h173.18v.11c12.44.58,22.38,11.35,22.38,24.65s-9.94,24.07-22.38,24.65v.11H42.62v-.11c-12.44-.58-22.38-11.35-22.38-24.65s9.94-24.07,22.38-24.65m190.59,49.31c12.44-.58,22.38-11.35,22.38-24.65s-9.94-24.07-22.38-24.65v-.11h69.64v.11c12.44.58,22.38,11.35,22.38,24.65s-9.94,24.07-22.38,24.65v.11h-69.64v-.11ZM462.31.5H0v465.14h462.31V.5Z"/>
  <path d="m1786.49,435.47l18.54-46.9,18.41,46.9h-36.95Zm11.75-58.11l-34.99,87.09h12.41l7.7-19.33h43.35l7.7,19.33h12.41l-35.12-87.09h-13.45Zm-784.45,9.65c10.32,0,17.38,6.79,17.38,16.59s-7.05,16.72-17.38,16.72h-22.86v-33.32h22.86Zm1.31-9.65h-34.99v87.09h10.82v-34.61h17.38l22.21,34.61h12.78l-23.5-35.52c11.89-1.04,22.58-9.65,22.58-25.33s-11.35-26.24-27.28-26.24m-316.55,43.62c0,27.03,19.97,45.17,44.79,45.17,14.24,0,26.12-6,34.21-15.01v-31.47h-40.74v9.65h29.91v17.77c-4.31,4.31-12.93,9.41-23.38,9.41-19.07,0-33.57-14.9-33.57-35.52s14.5-35.41,33.57-35.41c10.45,0,19.73,4.98,25.21,12.03l8.61-5.35c-7.69-9.55-18.4-16.33-33.82-16.33-24.82,0-44.79,18.02-44.79,45.05m107.99-304.38h115.4V0h-347.39v116.59h115.4v230.79h116.59V116.59Zm462.07,230.79l-63.02-122.91c27.6-13.54,62.5-45.31,62.5-105.21,0-65.1-43.75-119.27-125-119.27h-191.02v347.38h116.59V91.66h58.28c17.71,0,34.37,8.33,34.37,27.08s-16.67,27.6-34.37,27.6h-29.96v86.05l51.83,114.98h119.79Zm11.32,108.98c-16.07,0-24.69-10.06-24.69-25.99v-53.02h-10.82v53.28c0,21.42,11.87,35.38,35.51,35.38s35.51-13.83,35.51-35.51v-53.15h-10.82v53.02c0,15.93-8.62,25.99-24.69,25.99m134.43-108.98h143.95v-87.44h-143.95v-42.53h143.95v-87.44h-143.95v-42.53h143.95V0h-260.54v347.38h116.59Zm157.45,56.21c0,9.8-7.05,16.59-17.38,16.59h-22.86v-33.19h22.86c10.32,0,17.38,6.79,17.38,16.59m11.22,0c0-14.24-9.78-26.24-27.29-26.24h-34.99v87.09h10.82v-34.61h24.17c17.24,0,27.29-12,27.29-26.24m121.03-143.65v-42.53h143.95v-87.44h-143.95v-42.53h143.95V0h-260.54v347.38h260.54v-87.44h-143.95Z"/>
</svg>